<mxfile host="app.diagrams.net" modified="2022-06-25T16:29:44.116Z" agent="5.0 (Windows NT 10.0; Win64; x64) AppleWebKit/537.36 (KHTML, like Gecko) Chrome/102.0.0.0 Safari/537.36" etag="JiM7e0h90MctuOSBjwIy" version="20.0.3" type="github">
  <diagram id="9pAX8c8izGTApVfDBA-F" name="Page-1">
    <mxGraphModel dx="1422" dy="794" grid="1" gridSize="10" guides="1" tooltips="1" connect="1" arrows="1" fold="1" page="1" pageScale="1" pageWidth="827" pageHeight="1169" math="0" shadow="0">
      <root>
        <mxCell id="0" />
        <mxCell id="1" parent="0" />
        <mxCell id="f6osUaT_6SpjtwVkKOGO-1" value="" style="whiteSpace=wrap;html=1;aspect=fixed;fillColor=#fff2cc;strokeColor=#d6b656;" vertex="1" parent="1">
          <mxGeometry x="40" y="40" width="220" height="220" as="geometry" />
        </mxCell>
        <mxCell id="f6osUaT_6SpjtwVkKOGO-2" value="" style="rounded=1;whiteSpace=wrap;html=1;" vertex="1" parent="1">
          <mxGeometry x="115" y="80" width="70" height="120" as="geometry" />
        </mxCell>
        <mxCell id="f6osUaT_6SpjtwVkKOGO-3" value="" style="rounded=1;whiteSpace=wrap;html=1;" vertex="1" parent="1">
          <mxGeometry x="50" y="50" width="200" height="20" as="geometry" />
        </mxCell>
        <mxCell id="f6osUaT_6SpjtwVkKOGO-4" value="" style="triangle;whiteSpace=wrap;html=1;direction=west;" vertex="1" parent="1">
          <mxGeometry x="80" y="125" width="20" height="30" as="geometry" />
        </mxCell>
        <mxCell id="f6osUaT_6SpjtwVkKOGO-5" value="" style="triangle;whiteSpace=wrap;html=1;" vertex="1" parent="1">
          <mxGeometry x="200" y="125" width="20" height="30" as="geometry" />
        </mxCell>
        <mxCell id="f6osUaT_6SpjtwVkKOGO-6" value="" style="rounded=0;whiteSpace=wrap;html=1;" vertex="1" parent="1">
          <mxGeometry x="115" y="170" width="70" height="20" as="geometry" />
        </mxCell>
        <mxCell id="f6osUaT_6SpjtwVkKOGO-7" value="Actor" style="shape=umlActor;verticalLabelPosition=bottom;verticalAlign=top;html=1;outlineConnect=0;" vertex="1" parent="1">
          <mxGeometry x="140" y="100" width="20" height="40" as="geometry" />
        </mxCell>
        <mxCell id="f6osUaT_6SpjtwVkKOGO-8" value="start" style="rounded=1;whiteSpace=wrap;html=1;" vertex="1" parent="1">
          <mxGeometry x="160" y="210" width="90" height="40" as="geometry" />
        </mxCell>
        <mxCell id="f6osUaT_6SpjtwVkKOGO-9" value="info" style="rounded=1;whiteSpace=wrap;html=1;" vertex="1" parent="1">
          <mxGeometry x="50" y="210" width="90" height="40" as="geometry" />
        </mxCell>
        <mxCell id="f6osUaT_6SpjtwVkKOGO-10" value="" style="shape=flexArrow;endArrow=classic;html=1;rounded=0;fillColor=#f8cecc;strokeColor=#b85450;" edge="1" parent="1">
          <mxGeometry width="50" height="50" relative="1" as="geometry">
            <mxPoint x="94.5" y="260" as="sourcePoint" />
            <mxPoint x="94.5" y="360" as="targetPoint" />
            <Array as="points">
              <mxPoint x="94.5" y="320" />
            </Array>
          </mxGeometry>
        </mxCell>
        <mxCell id="f6osUaT_6SpjtwVkKOGO-11" value="" style="whiteSpace=wrap;html=1;aspect=fixed;fillColor=#fff2cc;strokeColor=#d6b656;" vertex="1" parent="1">
          <mxGeometry x="40" y="370" width="230" height="230" as="geometry" />
        </mxCell>
        <mxCell id="f6osUaT_6SpjtwVkKOGO-13" value="" style="shape=flexArrow;endArrow=classic;html=1;rounded=0;fillColor=#f8cecc;strokeColor=#b85450;" edge="1" parent="1">
          <mxGeometry width="50" height="50" relative="1" as="geometry">
            <mxPoint x="210" y="260" as="sourcePoint" />
            <mxPoint x="300" y="320" as="targetPoint" />
            <Array as="points">
              <mxPoint x="210" y="320" />
            </Array>
          </mxGeometry>
        </mxCell>
        <mxCell id="f6osUaT_6SpjtwVkKOGO-14" value="" style="whiteSpace=wrap;html=1;aspect=fixed;fillColor=#fff2cc;strokeColor=#d6b656;" vertex="1" parent="1">
          <mxGeometry x="320" y="115" width="230" height="230" as="geometry" />
        </mxCell>
        <mxCell id="f6osUaT_6SpjtwVkKOGO-15" value="" style="rounded=1;whiteSpace=wrap;html=1;" vertex="1" parent="1">
          <mxGeometry x="50" y="405" width="210" height="70" as="geometry" />
        </mxCell>
        <mxCell id="f6osUaT_6SpjtwVkKOGO-16" value="" style="rounded=1;whiteSpace=wrap;html=1;" vertex="1" parent="1">
          <mxGeometry x="50" y="515" width="210" height="70" as="geometry" />
        </mxCell>
        <mxCell id="f6osUaT_6SpjtwVkKOGO-17" value="" style="whiteSpace=wrap;html=1;aspect=fixed;fillColor=#dae8fc;strokeColor=#6c8ebf;" vertex="1" parent="1">
          <mxGeometry x="70" y="520" width="30" height="30" as="geometry" />
        </mxCell>
        <mxCell id="f6osUaT_6SpjtwVkKOGO-18" value="" style="whiteSpace=wrap;html=1;aspect=fixed;fillColor=#dae8fc;strokeColor=#6c8ebf;" vertex="1" parent="1">
          <mxGeometry x="135" y="520" width="30" height="30" as="geometry" />
        </mxCell>
        <mxCell id="f6osUaT_6SpjtwVkKOGO-19" value="" style="whiteSpace=wrap;html=1;aspect=fixed;fillColor=#dae8fc;strokeColor=#6c8ebf;" vertex="1" parent="1">
          <mxGeometry x="210" y="520" width="30" height="30" as="geometry" />
        </mxCell>
        <mxCell id="f6osUaT_6SpjtwVkKOGO-20" value="" style="endArrow=none;html=1;rounded=0;" edge="1" parent="1">
          <mxGeometry width="50" height="50" relative="1" as="geometry">
            <mxPoint x="114" y="520" as="sourcePoint" />
            <mxPoint x="114" y="580" as="targetPoint" />
          </mxGeometry>
        </mxCell>
        <mxCell id="f6osUaT_6SpjtwVkKOGO-21" value="" style="endArrow=none;html=1;rounded=0;" edge="1" parent="1">
          <mxGeometry width="50" height="50" relative="1" as="geometry">
            <mxPoint x="190" y="515" as="sourcePoint" />
            <mxPoint x="190" y="575" as="targetPoint" />
          </mxGeometry>
        </mxCell>
        <mxCell id="f6osUaT_6SpjtwVkKOGO-22" value="authors" style="rounded=1;whiteSpace=wrap;html=1;" vertex="1" parent="1">
          <mxGeometry x="50" y="490" width="210" height="20" as="geometry" />
        </mxCell>
        <mxCell id="f6osUaT_6SpjtwVkKOGO-23" value="rules" style="rounded=1;whiteSpace=wrap;html=1;" vertex="1" parent="1">
          <mxGeometry x="50" y="380" width="210" height="20" as="geometry" />
        </mxCell>
        <mxCell id="f6osUaT_6SpjtwVkKOGO-24" value="" style="whiteSpace=wrap;html=1;aspect=fixed;fillColor=#d5e8d4;strokeColor=#82b366;" vertex="1" parent="1">
          <mxGeometry x="60" y="410" width="25" height="25" as="geometry" />
        </mxCell>
        <mxCell id="f6osUaT_6SpjtwVkKOGO-25" value="" style="whiteSpace=wrap;html=1;aspect=fixed;fillColor=#d5e8d4;strokeColor=#82b366;" vertex="1" parent="1">
          <mxGeometry x="110" y="440" width="25" height="25" as="geometry" />
        </mxCell>
        <mxCell id="f6osUaT_6SpjtwVkKOGO-26" value="" style="whiteSpace=wrap;html=1;aspect=fixed;fillColor=#d5e8d4;strokeColor=#82b366;" vertex="1" parent="1">
          <mxGeometry x="165" y="410" width="25" height="25" as="geometry" />
        </mxCell>
        <mxCell id="f6osUaT_6SpjtwVkKOGO-27" value="" style="whiteSpace=wrap;html=1;aspect=fixed;fillColor=#d5e8d4;strokeColor=#82b366;" vertex="1" parent="1">
          <mxGeometry x="215" y="440" width="25" height="25" as="geometry" />
        </mxCell>
        <mxCell id="f6osUaT_6SpjtwVkKOGO-29" value="" style="endArrow=none;html=1;rounded=0;" edge="1" parent="1">
          <mxGeometry width="50" height="50" relative="1" as="geometry">
            <mxPoint x="320" y="345" as="sourcePoint" />
            <mxPoint x="400" y="265" as="targetPoint" />
            <Array as="points">
              <mxPoint x="340" y="325" />
            </Array>
          </mxGeometry>
        </mxCell>
        <mxCell id="f6osUaT_6SpjtwVkKOGO-30" value="" style="endArrow=none;html=1;rounded=0;entryX=1;entryY=0.661;entryDx=0;entryDy=0;entryPerimeter=0;" edge="1" parent="1" target="f6osUaT_6SpjtwVkKOGO-14">
          <mxGeometry width="50" height="50" relative="1" as="geometry">
            <mxPoint x="399" y="265" as="sourcePoint" />
            <mxPoint x="499" y="265" as="targetPoint" />
          </mxGeometry>
        </mxCell>
        <mxCell id="f6osUaT_6SpjtwVkKOGO-32" value="" style="endArrow=none;html=1;rounded=0;entryX=0.339;entryY=-0.009;entryDx=0;entryDy=0;entryPerimeter=0;" edge="1" parent="1" target="f6osUaT_6SpjtwVkKOGO-14">
          <mxGeometry width="50" height="50" relative="1" as="geometry">
            <mxPoint x="400" y="266" as="sourcePoint" />
            <mxPoint x="400" y="166" as="targetPoint" />
          </mxGeometry>
        </mxCell>
        <mxCell id="f6osUaT_6SpjtwVkKOGO-43" value="" style="shape=parallelogram;perimeter=parallelogramPerimeter;whiteSpace=wrap;html=1;fixedSize=1;fillColor=#a20025;fontColor=#ffffff;strokeColor=#6F0000;" vertex="1" parent="1">
          <mxGeometry x="355" y="290" width="210" height="22.5" as="geometry" />
        </mxCell>
        <mxCell id="f6osUaT_6SpjtwVkKOGO-44" value="" style="shape=flexArrow;endArrow=classic;html=1;rounded=0;fillColor=#f8cecc;strokeColor=#b85450;exitX=1;exitY=1;exitDx=0;exitDy=-15;exitPerimeter=0;" edge="1" parent="1" source="f6osUaT_6SpjtwVkKOGO-45">
          <mxGeometry width="50" height="50" relative="1" as="geometry">
            <mxPoint x="700" y="170" as="sourcePoint" />
            <mxPoint x="700" y="380" as="targetPoint" />
            <Array as="points">
              <mxPoint x="700" y="230" />
            </Array>
          </mxGeometry>
        </mxCell>
        <mxCell id="f6osUaT_6SpjtwVkKOGO-45" value="press&lt;br&gt;E" style="shape=cylinder3;whiteSpace=wrap;html=1;boundedLbl=1;backgroundOutline=1;size=15;fillColor=#fff2cc;strokeColor=#d6b656;" vertex="1" parent="1">
          <mxGeometry x="455" y="225" width="40" height="65" as="geometry" />
        </mxCell>
        <mxCell id="f6osUaT_6SpjtwVkKOGO-46" value="" style="whiteSpace=wrap;html=1;aspect=fixed;fillColor=#fff2cc;strokeColor=#d6b656;" vertex="1" parent="1">
          <mxGeometry x="580" y="385" width="230" height="230" as="geometry" />
        </mxCell>
        <mxCell id="f6osUaT_6SpjtwVkKOGO-47" value="" style="rounded=0;whiteSpace=wrap;html=1;fillColor=#f0a30a;strokeColor=#BD7000;fontColor=#000000;" vertex="1" parent="1">
          <mxGeometry x="639" y="417" width="117" height="119" as="geometry" />
        </mxCell>
        <mxCell id="f6osUaT_6SpjtwVkKOGO-48" value="" style="rounded=0;whiteSpace=wrap;html=1;fillColor=#dae8fc;strokeColor=#6c8ebf;" vertex="1" parent="1">
          <mxGeometry x="649" y="425.19" width="99" height="100.81" as="geometry" />
        </mxCell>
        <mxCell id="f6osUaT_6SpjtwVkKOGO-50" value="description" style="shape=process;whiteSpace=wrap;html=1;backgroundOutline=1;fillColor=#f8cecc;strokeColor=#b85450;" vertex="1" parent="1">
          <mxGeometry x="637" y="391" width="120" height="20" as="geometry" />
        </mxCell>
        <mxCell id="f6osUaT_6SpjtwVkKOGO-57" value="" style="group" vertex="1" connectable="0" parent="1">
          <mxGeometry x="591" y="546" width="120" height="60" as="geometry" />
        </mxCell>
        <mxCell id="f6osUaT_6SpjtwVkKOGO-49" value="" style="ellipse;whiteSpace=wrap;html=1;fillColor=#fad7ac;strokeColor=#b46504;" vertex="1" parent="f6osUaT_6SpjtwVkKOGO-57">
          <mxGeometry width="120" height="60" as="geometry" />
        </mxCell>
        <mxCell id="f6osUaT_6SpjtwVkKOGO-52" value="" style="ellipse;whiteSpace=wrap;html=1;aspect=fixed;fillColor=#f0a30a;fontColor=#000000;strokeColor=#BD7000;" vertex="1" parent="f6osUaT_6SpjtwVkKOGO-57">
          <mxGeometry x="15" y="20" width="20" height="20" as="geometry" />
        </mxCell>
        <mxCell id="f6osUaT_6SpjtwVkKOGO-54" value="" style="ellipse;whiteSpace=wrap;html=1;aspect=fixed;fillColor=#60a917;fontColor=#ffffff;strokeColor=#2D7600;" vertex="1" parent="f6osUaT_6SpjtwVkKOGO-57">
          <mxGeometry x="58" y="5" width="20" height="20" as="geometry" />
        </mxCell>
        <mxCell id="f6osUaT_6SpjtwVkKOGO-53" value="" style="ellipse;whiteSpace=wrap;html=1;aspect=fixed;fillColor=#1ba1e2;fontColor=#ffffff;strokeColor=#006EAF;" vertex="1" parent="f6osUaT_6SpjtwVkKOGO-57">
          <mxGeometry x="33" y="6" width="20" height="20" as="geometry" />
        </mxCell>
        <mxCell id="f6osUaT_6SpjtwVkKOGO-55" value="" style="ellipse;whiteSpace=wrap;html=1;aspect=fixed;fillColor=#d80073;fontColor=#ffffff;strokeColor=#A50040;" vertex="1" parent="f6osUaT_6SpjtwVkKOGO-57">
          <mxGeometry x="80" y="20" width="20" height="20" as="geometry" />
        </mxCell>
        <mxCell id="f6osUaT_6SpjtwVkKOGO-60" value="" style="rounded=0;whiteSpace=wrap;html=1;fillColor=#a0522d;fontColor=#ffffff;strokeColor=#6D1F00;" vertex="1" parent="1">
          <mxGeometry x="775" y="555" width="10" height="60" as="geometry" />
        </mxCell>
        <mxCell id="f6osUaT_6SpjtwVkKOGO-58" value="" style="ellipse;shape=cloud;whiteSpace=wrap;html=1;" vertex="1" parent="1">
          <mxGeometry x="770" y="530" width="20" height="40" as="geometry" />
        </mxCell>
        <mxCell id="f6osUaT_6SpjtwVkKOGO-61" value="" style="endArrow=none;html=1;rounded=0;" edge="1" parent="1">
          <mxGeometry width="50" height="50" relative="1" as="geometry">
            <mxPoint x="779.5" y="545" as="sourcePoint" />
            <mxPoint x="779.5" y="555" as="targetPoint" />
          </mxGeometry>
        </mxCell>
        <mxCell id="f6osUaT_6SpjtwVkKOGO-62" value="" style="rounded=0;whiteSpace=wrap;html=1;fillColor=#f0a30a;strokeColor=#BD7000;fontColor=#000000;" vertex="1" parent="1">
          <mxGeometry x="445.75" y="140" width="58.5" height="50" as="geometry" />
        </mxCell>
        <mxCell id="f6osUaT_6SpjtwVkKOGO-63" value="" style="rounded=0;whiteSpace=wrap;html=1;fillColor=#dae8fc;strokeColor=#6c8ebf;" vertex="1" parent="1">
          <mxGeometry x="455.75" y="150" width="38.5" height="30" as="geometry" />
        </mxCell>
        <mxCell id="f6osUaT_6SpjtwVkKOGO-64" value="description" style="shape=process;whiteSpace=wrap;html=1;backgroundOutline=1;fillColor=#f8cecc;strokeColor=#b85450;" vertex="1" parent="1">
          <mxGeometry x="415" y="200" width="120" height="20" as="geometry" />
        </mxCell>
      </root>
    </mxGraphModel>
  </diagram>
</mxfile>
